<?xml version="1.0" encoding="UTF-8" standalone="no"?>
<svg
   xmlns:dc="http://purl.org/dc/elements/1.1/"
   xmlns:cc="http://creativecommons.org/ns#"
   xmlns:rdf="http://www.w3.org/1999/02/22-rdf-syntax-ns#"
   xmlns:svg="http://www.w3.org/2000/svg"
   xmlns="http://www.w3.org/2000/svg"
   xmlns:sodipodi="http://sodipodi.sourceforge.net/DTD/sodipodi-0.dtd"
   xmlns:inkscape="http://www.inkscape.org/namespaces/inkscape"
   width="1920"
   height="1080"
   viewBox="0 0 508 285.75"
   version="1.1"
   id="svg8"
   inkscape:version="1.0.1 (3bc2e813f5, 2020-09-07)"
   sodipodi:docname="retro_gruvbox_linux_wallpaper.svg">
  <defs
     id="defs2">
    <inkscape:path-effect
       effect="skeletal"
       id="path-effect853"
       is_visible="true"
       lpeversion="1"
       pattern="M 0,5 C 0,2.24 2.24,0 5,0 7.76,0 10,2.24 10,5 10,7.76 7.76,10 5,10 2.24,10 0,7.76 0,5 Z"
       copytype="single_stretched"
       prop_scale="-0.12862018"
       scale_y_rel="false"
       spacing="0"
       normal_offset="0"
       tang_offset="0"
       prop_units="false"
       vertical_pattern="false"
       hide_knot="false"
       fuse_tolerance="0" />
  </defs>
  <sodipodi:namedview
     id="base"
     pagecolor="#ffffff"
     bordercolor="#666666"
     borderopacity="1.0"
     inkscape:pageopacity="0.0"
     inkscape:pageshadow="2"
     inkscape:zoom="0.49274954"
     inkscape:cx="794.4687"
     inkscape:cy="423.06426"
     inkscape:document-units="mm"
     inkscape:current-layer="layer1"
     inkscape:document-rotation="0"
     showgrid="false"
     inkscape:window-width="1920"
     inkscape:window-height="1052"
     inkscape:window-x="0"
     inkscape:window-y="28"
     inkscape:window-maximized="1"
     inkscape:snap-center="false"
     showguides="true"
     inkscape:guide-bbox="true"
     inkscape:snap-bbox="false"
     inkscape:bbox-paths="false"
     inkscape:bbox-nodes="false"
     inkscape:snap-bbox-edge-midpoints="false"
     units="px" />
  <metadata
     id="metadata5">
    <rdf:RDF>
      <cc:Work
         rdf:about="">
        <dc:format>image/svg+xml</dc:format>
        <dc:type
           rdf:resource="http://purl.org/dc/dcmitype/StillImage" />
        <dc:title />
      </cc:Work>
    </rdf:RDF>
  </metadata>
  <g
     inkscape:label="Layer 1"
     inkscape:groupmode="layer"
     id="layer1"
     transform="translate(126.24404,20.410715)">
    <g
       id="g973">
      <rect
         style="fill:#1d2021;fill-opacity:1;stroke:none;stroke-width:0.264583;stroke-opacity:1"
         id="rect1184"
         width="508"
         height="285.75"
         x="-126.24404"
         y="-20.410715" />
      <path
         id="path1081"
         style="fill:#eadcb2;fill-opacity:1;stroke:none;stroke-width:0.262216;stroke-opacity:1"
         d="m 264.0167,102.95274 v 39.02307 h 0.90847 v -39.02306 z m 1.81694,0 v 39.02307 h 0.90848 v -39.02306 z m 1.81695,0 v 39.02307 h 0.90847 v -39.02306 z m 1.81694,0 v 39.02307 h 0.90847 v -39.02306 z m 1.81694,0 v 39.02307 h 0.90847 v -39.02306 z"
         inkscape:connector-curvature="0" />
      <path
         id="rect960"
         style="fill:#eadcb2;fill-opacity:1;stroke:none;stroke-width:0.991051;stroke-opacity:1"
         d="m 245.04146,133.94575 v 0.89229 h 16.36128 v -0.89229 z m 0,1.78457 v 0.8923 h 16.36128 v -0.8923 z m 0,1.78457 v 0.8923 h 16.36128 v -0.8923 z m 0,1.78457 v 0.8923 h 16.36128 v -0.8923 z m 0,1.78457 v 0.89179 h 16.36128 v -0.89179 z m -8.17624,-38.13129 v 39.02308 h 0.90847 v -39.02308 z m 1.81694,0 v 39.02308 h 0.90847 v -39.02308 z m 1.81694,0 v 39.02308 h 0.90847 v -39.02308 z m 1.81694,0 v 39.02308 h 0.90848 v -39.02308 z m 1.81695,0 v 39.02308 h 0.90847 v -39.02308 z" />
      <path
         id="rect968"
         style="fill:#eadcb2;fill-opacity:1;stroke:none;stroke-width:0.985193;stroke-opacity:1"
         d="m 311.19141,102.95274 v 24.85257 0.80553 h 0.0238 c 0.43997,7.50103 6.83514,13.36493 14.57584,13.36498 7.7407,-3e-5 14.13589,-5.86394 14.57587,-13.36498 h 0.0238 v -0.80553 -24.85257 h -0.88831 l -0.0201,24.69658 v 0.75537 h -0.0228 c -0.41259,7.03413 -6.40953,12.53283 -13.66843,12.53287 -7.25887,-6e-5 -13.25581,-5.49875 -13.6684,-12.53287 h -0.0222 v -0.75537 l 0.0201,-24.69658 z m 1.81695,0 -0.0206,24.68404 v 0.70622 h 0.0212 c 0.38584,6.57827 5.99421,11.72077 12.78268,11.72082 6.78847,-3e-5 12.39684,-5.14254 12.78268,-11.72082 h 0.0212 v -0.70622 l 0.0201,-24.68404 h -0.93223 l -0.0175,24.76178 v 0.65506 h -0.019 c -0.35782,6.10088 -5.55929,10.87062 -11.85508,10.87065 -6.29581,-5e-5 -11.49723,-4.76979 -11.8551,-10.87065 h -0.019 v -0.65506 l 0.0169,-24.76178 z m 1.81695,0 -0.0175,24.75677 v 0.60591 h 0.018 c 0.33102,5.64347 5.14244,10.05553 10.96623,10.05558 5.82383,-3e-5 10.63525,-4.4121 10.96627,-10.05558 h 0.018 v -0.60591 l 0.0169,-24.75677 h -0.94514 l -0.0151,24.8927 v 0.55474 h -0.0161 c -0.30311,5.16764 -4.70903,9.2074 -10.04178,9.20742 -5.33273,-4e-5 -9.73866,-4.03979 -10.04176,-9.20742 h -0.0164 v -0.55474 l 0.0151,-24.8927 z m 1.81694,0 -0.0146,24.64692 v 0.50559 h 0.0151 c 0.27618,4.70866 4.2907,8.38982 9.14982,8.38986 4.85913,-2e-5 8.87365,-3.68119 9.14982,-8.38986 h 0.0151 v -0.50559 l 0.014,-24.64692 h -0.93742 v 24.82548 0.45494 h -0.013 c -0.24837,4.23428 -3.85887,7.54417 -8.22847,7.54419 -4.36956,-3e-5 -7.97954,-3.30992 -8.2279,-7.54419 h -0.0135 v -0.45494 -24.82548 z m 1.81695,0 v 24.77934 0.40427 h 0.0119 c 0.22098,3.76775 3.43336,6.71356 7.32149,6.71359 3.88816,-2e-5 7.10055,-2.94583 7.32153,-6.71359 h 0.0119 v -0.40427 -24.77934 h -0.88831 l -0.0103,24.671 v 0.35512 h -0.0103 c -0.19391,3.30618 -3.0131,5.89098 -6.42493,5.891 -3.41182,-3e-5 -6.23046,-2.58482 -6.4244,-5.891 h -0.0103 v -0.35512 l 0.0103,-24.671 z"
         inkscape:connector-curvature="0" />
      <path
         id="path1085"
         style="fill:#eadcb2;fill-opacity:1;stroke:none;stroke-width:0.262215;stroke-opacity:1"
         d="m 299.73287,102.95277 v 27.25673 h 0.90847 v -27.25673 z m 1.81694,0 v 30.33117 h 0.90848 v -30.33117 z m 1.81695,0 v 33.5052 h 0.90847 v -33.5052 z m 1.81694,0 v 36.52072 h 0.90847 v -36.52072 z m 1.81694,0 v 39.02305 h 0.90847 v -39.02305 z m -31.72669,-3e-5 v 39.02305 h 0.90847 v -39.02305 z m 1.81694,2.95588 v 36.06717 h 0.90848 v -36.06717 z m 1.81695,3.03043 v 33.03674 h 0.90847 v -33.03674 z m 1.81694,3.07624 v 29.9605 h 0.90847 v -29.9605 z m 1.81694,3.0249 v 26.9356 h 0.90847 v -26.9356 z m -7.28618,-12.08745 23.23416,39.02305 h 1.02433 l -23.23416,-39.02305 z m 2.04866,0 23.23416,39.02305 h 1.02434 l -23.23416,-39.02305 z m 2.04867,0 23.23416,39.02305 h 1.02433 L 280.3772,102.95274 Z m 2.04866,0 23.23416,39.02305 h 1.02433 l -23.23416,-39.02305 z m 2.04866,0 23.23415,39.02305 h 1.02433 l -23.23415,-39.02305 z" />
      <path
         id="path1178"
         style="fill:#eadcb2;fill-opacity:1;stroke:none;stroke-width:0.991049;stroke-opacity:1"
         d="m 365.99892,102.95274 -7.12824,11.9717 0.52141,0.84508 7.63106,-12.81678 z m 2.04846,0 -8.13387,13.66187 0.52091,0.84456 8.63719,-14.50643 z m 2.04846,0 -9.14001,15.35152 0.52142,0.84508 9.64335,-16.1966 z m 2.04896,0 -10.14667,17.04167 0.52142,0.84508 10.64948,-17.88675 z m 2.04846,0 -11.1528,18.73133 0.52141,0.84507 11.65561,-19.5764 z m -19.64635,19.23431 -11.78221,19.78856 h 1.02423 l 11.27889,-18.94347 z m 1.04233,1.69016 -10.77608,18.0984 h 1.02422 l 10.27274,-17.25383 z m 1.0423,1.68966 -9.76942,16.40874 h 1.02422 l 9.26661,-15.56367 z m 1.04283,1.69015 -8.7638,14.71859 h 1.02423 l 8.26048,-13.87401 z m 1.04232,1.68965 -7.75766,13.02894 h 1.02473 l 7.25435,-12.18386 z m -15.95212,-25.99372 23.23416,39.02287 h 1.02433 L 343.7889,102.95295 Z m 2.04866,0 23.23416,39.02287 h 1.02434 l -23.23416,-39.02287 z m 2.04867,0 23.23416,39.02287 h 1.02433 l -23.23416,-39.02287 z m 2.04866,0 23.23416,39.02287 h 1.02433 l -23.23416,-39.02287 z m 2.04866,0 23.23415,39.02287 h 1.02433 l -23.23415,-39.02287 z" />
      <rect
         style="fill:#468488;fill-opacity:1;fill-rule:evenodd;stroke:#468488;stroke-width:0.226099px;stroke-linecap:butt;stroke-linejoin:miter;stroke-opacity:1"
         id="rect3420"
         width="361.13232"
         height="9.695776"
         x="-125.86488"
         y="112.7662" />
      <rect
         y="103.0658"
         x="-125.86488"
         height="9.695776"
         width="361.13232"
         id="rect3422"
         style="fill:#689e6a;fill-opacity:1;fill-rule:evenodd;stroke:#689e6a;stroke-width:0.226099px;stroke-linecap:butt;stroke-linejoin:miter;stroke-opacity:1" />
      <rect
         style="fill:#d89920;fill-opacity:1;fill-rule:evenodd;stroke:#d89920;stroke-width:0.226099px;stroke-linecap:butt;stroke-linejoin:miter;stroke-opacity:1"
         id="rect3424"
         width="361.13232"
         height="9.695776"
         x="-125.86488"
         y="122.4666" />
      <rect
         y="132.16699"
         x="-125.86488"
         height="9.695776"
         width="361.13232"
         id="rect4235"
         style="fill:#cc241d;fill-opacity:1;fill-rule:evenodd;stroke:#cc241d;stroke-width:0.226099px;stroke-linecap:butt;stroke-linejoin:miter;stroke-opacity:1" />
    </g>
  </g>
</svg>
